<svg xmlns="http://www.w3.org/2000/svg" width="841.889" height="841.891" viewBox="0 0 841.889 841.891"><path d="M420.944 0C188.45 0 0 188.452 0 420.945S188.45 841.89 420.944 841.89s420.944-188.48 420.944-420.945S653.438 0 420.944 0zm0 789.272c-203.42 0-368.326-164.905-368.326-368.327S217.523 52.618 420.944 52.618c203.422 0 368.327 164.905 368.327 368.327S624.367 789.272 420.945 789.272zM578.8 394.637H447.253V263.09c0-14.52-11.787-26.308-26.31-26.308s-26.31 11.786-26.31 26.31v131.545H263.09c-14.522 0-26.31 11.786-26.31 26.31s11.787 26.308 26.31 26.308h131.545V578.8c0 14.522 11.787 26.31 26.31 26.31s26.31-11.787 26.31-26.31V447.254H578.8c14.522 0 26.31-11.786 26.31-26.31s-11.79-26.307-26.31-26.307z"/></svg>