<svg xmlns="http://www.w3.org/2000/svg" width="39.492" height="50.001" viewBox="5.254 -0.036 39.492 50.001" enable-background="new 5.254 -0.036 39.492 50.001"><path d="M26.12 14.452c.878-1.468 2.27-3.57 4.026-5.585h.002c1.488-1.71 4.402-3.907 4.402-3.907.438-.33.39-.792-.107-1.024L30.92 2.29c-.497-.233-1.174-.063-1.504.376 0 0-2.605 3.737-5.67 11.692-9.48-4.288-18.492 1.718-18.492 12.162 0 10.91 8.393 27.48 19.743 22.478C36.95 54.17 44.747 37.43 44.747 26.52c0-10.534-8.1-16.71-18.628-12.068zM23.996 10.92c.548-.047 1.032-.532 1.076-1.08 0 0 .352-4.265-2.62-7.24C19.468-.38 15.21-.024 15.21-.024c-.55.046-1.033.53-1.078 1.078 0 0-.358 4.268 2.62 7.245 2.975 2.974 7.242 2.62 7.242 2.62z"/></svg>