<svg xmlns="http://www.w3.org/2000/svg" width="645.414" height="645.73" viewBox="0 0 645.414 645.73"><path d="M426.837 323.392L632.47 117.655c17.258-17.26 17.258-45.356 0-62.826l-41.886-41.885c-17.26-17.26-45.356-17.26-62.825 0L322.126 218.682 117.654 14.207c-17.26-17.26-45.357-17.26-62.826 0L12.944 56.09c-17.26 17.26-17.26 45.358 0 62.827l204.474 204.475L13.154 527.55c-17.26 17.26-17.26 45.356 0 62.826l41.884 41.884c17.26 17.26 45.357 17.26 62.826 0l204.264-204.158 204.685 204.685c17.26 17.26 45.356 17.26 62.826 0l41.883-41.884c17.26-17.26 17.26-45.357 0-62.826L426.837 323.392z"/></svg>