<svg xmlns="http://www.w3.org/2000/svg" width="841.889" height="563.012" viewBox="0 313.769 841.889 563.012" enable-background="new 0 313.769 841.889 563.012"><path d="M422 651.42h.18c6.35 0 12.623-1.84 17.7-5.195l1.377-.883c.3-.195.614-.375.93-.584l16.036-13.268 382.783-315.88c-.794-1.093-2.142-1.84-3.58-1.84H4.45c-1.033 0-1.992.373-2.756 1.002l400.482 330.09c5.047 4.178 12.25 6.56 19.826 6.56zM0 358.528v468.226l286.89-231.755L0 358.528zM555.3 596.57l286.59 230.302V360.084L555.3 596.57zm-91.118 75.17c-11.425 9.374-26.37 14.54-42.062 14.54-15.753 0-30.683-5.136-42.077-14.465l-65.707-54.19L0 871.51v.81c0 2.41 2.066 4.46 4.507 4.46h832.935c2.396 0 4.447-2.05 4.447-4.477v-.748L527.822 619.212l-63.64 52.528z"/></svg>