<svg xmlns="http://www.w3.org/2000/svg" width="374.105" height="486.733" viewBox="70 13.266 374.105 486.733" enable-background="new 70 13.266 374.105 486.733"><path d="M417.566 209.83h-9.483v-44.388c0-82.1-65.15-150.68-146.582-152.146-2.224-.04-6.67-.04-8.895 0-81.432 1.465-146.582 70.047-146.582 152.146v44.388H96.54C81.92 209.83 70 224.912 70 243.54V466.17C70 484.777 81.922 500 96.54 500h321.026c14.617 0 26.54-15.223 26.54-33.828V243.54c0-18.628-11.922-33.71-26.54-33.71zM287.13 354.63v67.27c0 7.704-6.45 14.222-14.16 14.222h-31.834c-7.71 0-14.16-6.518-14.16-14.222v-67.27c-7.476-7.36-11.83-17.537-11.83-28.796 0-21.334 16.492-39.666 37.46-40.512 2.223-.09 6.673-.09 8.896 0 20.968.846 37.46 19.178 37.46 40.512-.003 11.26-4.357 21.434-11.833 28.795zm58.442-144.8H168.534v-44.388c0-48.905 39.742-89.342 88.518-89.342 48.774 0 88.52 40.437 88.52 89.342v44.388z"/></svg>