<svg xmlns="http://www.w3.org/2000/svg" width="409.164" height="405.332" viewBox="51.417 53.334 409.164 405.332" enable-background="new 51.417 53.334 409.164 405.332"><path d="M256 268.09c50.664 0 91.74-48.075 91.74-107.38 0-82.235-41.074-107.376-91.74-107.376-50.667 0-91.74 25.14-91.74 107.377 0 59.304 41.073 107.38 91.74 107.38zM458.58 426.135L412.298 321.87c-2.117-4.77-5.836-8.726-10.466-11.137l-71.83-37.39c-1.583-.825-3.502-.664-4.926.414-20.315 15.365-44.202 23.487-69.075 23.487-24.876 0-48.762-8.122-69.077-23.487-1.428-1.08-3.346-1.24-4.93-.415l-71.826 37.39c-4.63 2.412-8.347 6.367-10.465 11.14L53.42 426.134c-3.192 7.188-2.538 15.412 1.75 22.005 4.284 6.59 11.536 10.525 19.398 10.525H437.43c7.863 0 15.117-3.936 19.402-10.526 4.283-6.592 4.94-14.82 1.748-22.005z"/></svg>