<?xml version="1.0" encoding="utf-8"?>
<!-- Generator: Adobe Illustrator 15.0.2, SVG Export Plug-In . SVG Version: 6.00 Build 0)  -->
<!DOCTYPE svg PUBLIC "-//W3C//DTD SVG 1.1//EN" "http://www.w3.org/Graphics/SVG/1.1/DTD/svg11.dtd">
<svg version="1.1" id="Layer_1" xmlns="http://www.w3.org/2000/svg" xmlns:xlink="http://www.w3.org/1999/xlink" x="0px" y="0px"
	 width="841.889px" height="841.891px" viewBox="0 0 841.889 841.891" enable-background="new 0 0 841.889 841.891"
	 xml:space="preserve">
<g id="_x38__2_">
	<g>
		<path d="M420.944,0C188.451,0,0,188.452,0,420.945s188.451,420.945,420.944,420.945s420.944-188.479,420.944-420.945
			S653.438,0,420.944,0z M420.944,789.272c-203.421,0-368.326-164.905-368.326-368.327S217.523,52.618,420.944,52.618
			c203.422,0,368.327,164.905,368.327,368.327S624.366,789.272,420.944,789.272z M578.799,394.637H447.254V263.091
			c0-14.522-11.787-26.309-26.31-26.309s-26.31,11.786-26.31,26.309v131.546H263.09c-14.522,0-26.309,11.786-26.309,26.309
			s11.786,26.309,26.309,26.309h131.545V578.8c0,14.522,11.787,26.309,26.31,26.309s26.31-11.786,26.31-26.309V447.254h131.545
			c14.522,0,26.309-11.786,26.309-26.309S593.321,394.637,578.799,394.637z"/>
	</g>
</g>
</svg>
