<?xml version="1.0" encoding="utf-8"?>
<!-- Generator: Adobe Illustrator 15.0.2, SVG Export Plug-In . SVG Version: 6.00 Build 0)  -->
<!DOCTYPE svg PUBLIC "-//W3C//DTD SVG 1.1//EN" "http://www.w3.org/Graphics/SVG/1.1/DTD/svg11.dtd">
<svg version="1.1" id="Capa_1" xmlns="http://www.w3.org/2000/svg" xmlns:xlink="http://www.w3.org/1999/xlink" x="0px" y="0px"
	 width="841.889px" height="563.012px" viewBox="0 313.769 841.889 563.012" enable-background="new 0 313.769 841.889 563.012"
	 xml:space="preserve">
<path d="M422,651.421h0.18c6.349,0,12.623-1.842,17.699-5.196l1.378-0.883c0.3-0.195,0.614-0.375,0.929-0.584l16.037-13.268
	l382.783-315.879c-0.794-1.094-2.142-1.842-3.579-1.842H4.448c-1.033,0-1.992,0.374-2.756,1.003l400.482,330.09
	C407.221,649.04,414.423,651.421,422,651.421z M0,358.527v468.226l286.889-231.755L0,358.527z M555.3,596.57l286.589,230.302
	V360.084L555.3,596.57z M464.182,671.74c-11.425,9.374-26.369,14.54-42.062,14.54c-15.753,0-30.683-5.136-42.077-14.465
	l-65.707-54.191L0,871.51v0.809c0,2.41,2.066,4.462,4.507,4.462h832.935c2.396,0,4.447-2.052,4.447-4.478v-0.748L527.823,619.212
	L464.182,671.74z"/>
</svg>
