<?xml version="1.0" encoding="utf-8"?>
<!-- Generator: Adobe Illustrator 15.0.2, SVG Export Plug-In . SVG Version: 6.00 Build 0)  -->
<!DOCTYPE svg PUBLIC "-//W3C//DTD SVG 1.1//EN" "http://www.w3.org/Graphics/SVG/1.1/DTD/svg11.dtd">
<svg version="1.1" id="Layer_1" xmlns="http://www.w3.org/2000/svg" xmlns:xlink="http://www.w3.org/1999/xlink" x="0px" y="0px"
	 width="165.192px" height="142.462px" viewBox="0 0 165.192 142.462" enable-background="new 0 0 165.192 142.462"
	 xml:space="preserve">
<g>
	<path d="M141.065,5.803C134.383,2.119,126.706,0,118.526,0C104.081,0,91.149,6.58,82.61,16.898C74.031,6.58,61.111,0,46.651,0
		c-8.165,0-15.822,2.119-22.524,5.803C9.744,13.769,0,29.082,0,46.683c0,5.035,0.819,9.864,2.305,14.388
		c8.008,35.999,80.306,81.391,80.306,81.391s72.255-45.392,80.274-81.391c1.485-4.524,2.308-9.359,2.308-14.388
		C165.192,29.087,155.448,13.782,141.065,5.803z"/>
</g>
</svg>
