<?xml version="1.0" encoding="utf-8"?>
<!-- Generator: Adobe Illustrator 15.0.2, SVG Export Plug-In . SVG Version: 6.00 Build 0)  -->
<!DOCTYPE svg PUBLIC "-//W3C//DTD SVG 1.1//EN" "http://www.w3.org/Graphics/SVG/1.1/DTD/svg11.dtd">
<svg version="1.1" id="Artwork" xmlns="http://www.w3.org/2000/svg" xmlns:xlink="http://www.w3.org/1999/xlink" x="0px" y="0px"
	 width="374.105px" height="486.733px" viewBox="70 13.266 374.105 486.733" enable-background="new 70 13.266 374.105 486.733"
	 xml:space="preserve">
<path d="M417.566,209.83h-9.483v-44.388c0-82.099-65.151-150.681-146.582-152.146c-2.225-0.04-6.671-0.04-8.896,0
	c-81.432,1.465-146.582,70.047-146.582,152.146v44.388h-9.484C81.922,209.83,70,224.912,70,243.539v222.633
	C70,484.777,81.922,500,96.539,500h321.027c14.617,0,26.539-15.223,26.539-33.828V243.539
	C444.105,224.912,432.184,209.83,417.566,209.83z M287.129,354.629v67.271c0,7.704-6.449,14.222-14.159,14.222h-31.834
	c-7.71,0-14.159-6.518-14.159-14.222v-67.271c-7.477-7.36-11.83-17.536-11.83-28.795c0-21.334,16.491-39.666,37.459-40.512
	c2.223-0.09,6.673-0.09,8.896,0c20.968,0.846,37.459,19.178,37.459,40.512C298.959,337.093,294.605,347.268,287.129,354.629z
	 M345.572,209.83H261.5h-8.896h-84.071v-44.388c0-48.905,39.743-89.342,88.519-89.342c48.774,0,88.52,40.437,88.52,89.342V209.83z"
	/>
</svg>
