<?xml version="1.0" encoding="utf-8"?>
<!-- Generator: Adobe Illustrator 15.0.2, SVG Export Plug-In . SVG Version: 6.00 Build 0)  -->
<!DOCTYPE svg PUBLIC "-//W3C//DTD SVG 1.1//EN" "http://www.w3.org/Graphics/SVG/1.1/DTD/svg11.dtd">
<svg version="1.1" id="Layer_1" xmlns="http://www.w3.org/2000/svg" xmlns:xlink="http://www.w3.org/1999/xlink" x="0px" y="0px"
	 width="409.164px" height="405.332px" viewBox="51.417 53.334 409.164 405.332"
	 enable-background="new 51.417 53.334 409.164 405.332" xml:space="preserve">
<g>
	<path d="M256.001,268.089c50.663,0,91.739-48.074,91.739-107.378c0-82.236-41.074-107.377-91.739-107.377
		c-50.668,0-91.74,25.141-91.74,107.377C164.261,220.014,205.333,268.089,256.001,268.089z"/>
	<path d="M458.58,426.135l-46.282-104.264c-2.117-4.771-5.836-8.727-10.466-11.138l-71.829-37.391
		c-1.584-0.824-3.503-0.663-4.927,0.415c-20.315,15.365-44.202,23.487-69.075,23.487c-24.877,0-48.763-8.122-69.078-23.487
		c-1.428-1.079-3.346-1.239-4.93-0.415l-71.826,37.391c-4.631,2.411-8.347,6.366-10.465,11.138L53.419,426.135
		c-3.191,7.188-2.537,15.412,1.75,22.005c4.285,6.591,11.537,10.525,19.399,10.525H437.43c7.863,0,15.117-3.936,19.402-10.526
		C461.115,441.548,461.772,433.32,458.58,426.135z"/>
</g>
</svg>
