<svg xmlns="http://www.w3.org/2000/svg"><symbol id="icon-add" viewBox="0 0 841.889 841.891"><path d="M420.944 0C188.45 0 0 188.452 0 420.945S188.45 841.89 420.944 841.89s420.944-188.48 420.944-420.945S653.438 0 420.944 0zm0 789.272c-203.42 0-368.326-164.905-368.326-368.327S217.523 52.618 420.944 52.618c203.422 0 368.327 164.905 368.327 368.327S624.367 789.272 420.945 789.272zM578.8 394.637H447.253V263.09c0-14.52-11.787-26.308-26.31-26.308s-26.31 11.786-26.31 26.31v131.545H263.09c-14.522 0-26.31 11.786-26.31 26.31s11.787 26.308 26.31 26.308h131.545V578.8c0 14.522 11.787 26.31 26.31 26.31s26.31-11.787 26.31-26.31V447.254H578.8c14.522 0 26.31-11.786 26.31-26.31s-11.79-26.307-26.31-26.307z"/></symbol><symbol id="icon-apple" viewBox="5.254 -0.036 39.492 50.001"><path d="M26.12 14.452c.878-1.468 2.27-3.57 4.026-5.585h.002c1.488-1.71 4.402-3.907 4.402-3.907.438-.33.39-.792-.107-1.024L30.92 2.29c-.497-.233-1.174-.063-1.504.376 0 0-2.605 3.737-5.67 11.692-9.48-4.288-18.492 1.718-18.492 12.162 0 10.91 8.393 27.48 19.743 22.478C36.95 54.17 44.747 37.43 44.747 26.52c0-10.534-8.1-16.71-18.628-12.068zM23.996 10.92c.548-.047 1.032-.532 1.076-1.08 0 0 .352-4.265-2.62-7.24C19.468-.38 15.21-.024 15.21-.024c-.55.046-1.033.53-1.078 1.078 0 0-.358 4.268 2.62 7.245 2.975 2.974 7.242 2.62 7.242 2.62z"/></symbol><symbol id="icon-calendar" viewBox="0 0 512 512"><path d="M64 80V16c0-8.844 7.156-16 16-16s16 7.156 16 16v64c0 8.844-7.156 16-16 16s-16-7.156-16-16zm272 16c8.844 0 16-7.156 16-16V16c0-8.844-7.156-16-16-16s-16 7.156-16 16v64c0 8.844 7.156 16 16 16zm176 288c0 70.688-57.313 128-128 128s-128-57.313-128-128 57.313-128 128-128 128 57.313 128 128zm-32 0c0-52.938-43.063-96-96-96s-96 43.063-96 96 43.063 96 96 96 96-43.062 96-96zM128 192H64v64h64v-64zM64 352h64v-64H64v64zm96-96h64v-64h-64v64zm0 96h64v-64h-64v64zM32 380.813V160h352v64h32V99.188C416 79.75 400.5 64 381.344 64H368v16c0 17.625-14.344 32-32 32s-32-14.375-32-32V64H112v16c0 17.625-14.344 32-32 32S48 97.625 48 80V64H34.672C15.516 64 0 79.75 0 99.188v281.625C0 400.188 15.516 416 34.672 416H224v-32H34.672C33.22 384 32 382.5 32 380.813zM320 256v-64h-64v64h64zm112 128h-48v-48c0-8.844-7.156-16-16-16s-16 7.156-16 16v64c0 8.844 7.156 16 16 16h64c8.844 0 16-7.156 16-16s-7.156-16-16-16z"/></symbol><symbol id="icon-delete" viewBox="0 0 645.414 645.73"><path d="M426.837 323.392L632.47 117.655c17.258-17.26 17.258-45.356 0-62.826l-41.886-41.885c-17.26-17.26-45.356-17.26-62.825 0L322.126 218.682 117.654 14.207c-17.26-17.26-45.357-17.26-62.826 0L12.944 56.09c-17.26 17.26-17.26 45.358 0 62.827l204.474 204.475L13.154 527.55c-17.26 17.26-17.26 45.356 0 62.826l41.884 41.884c17.26 17.26 45.357 17.26 62.826 0l204.264-204.158 204.685 204.685c17.26 17.26 45.356 17.26 62.826 0l41.883-41.884c17.26-17.26 17.26-45.357 0-62.826L426.837 323.392z"/></symbol><symbol id="icon-email" viewBox="0 313.769 841.889 563.012"><path d="M422 651.42h.18c6.35 0 12.623-1.84 17.7-5.195l1.377-.883c.3-.195.614-.375.93-.584l16.036-13.268 382.783-315.88c-.794-1.093-2.142-1.84-3.58-1.84H4.45c-1.033 0-1.992.373-2.756 1.002l400.482 330.09c5.047 4.178 12.25 6.56 19.826 6.56zM0 358.528v468.226l286.89-231.755L0 358.528zM555.3 596.57l286.59 230.302V360.084L555.3 596.57zm-91.118 75.17c-11.425 9.374-26.37 14.54-42.062 14.54-15.753 0-30.683-5.136-42.077-14.465l-65.707-54.19L0 871.51v.81c0 2.41 2.066 4.46 4.507 4.46h832.935c2.396 0 4.447-2.05 4.447-4.477v-.748L527.822 619.212l-63.64 52.528z"/></symbol><symbol id="icon-heart" viewBox="0 0 165.192 142.462"><path d="M141.065 5.803C134.383 2.12 126.705 0 118.525 0 104.082 0 91.15 6.58 82.61 16.898 74.03 6.58 61.11 0 46.65 0c-8.164 0-15.82 2.12-22.523 5.803C9.744 13.77 0 29.083 0 46.683c0 5.035.82 9.864 2.305 14.388 8.008 36 80.306 81.392 80.306 81.392s72.256-45.392 80.275-81.39c1.485-4.525 2.308-9.36 2.308-14.39 0-17.595-9.745-32.9-24.128-40.88z"/></symbol><symbol id="icon-lock" viewBox="70 13.266 374.105 486.733"><path d="M417.566 209.83h-9.483v-44.388c0-82.1-65.15-150.68-146.582-152.146-2.224-.04-6.67-.04-8.895 0-81.432 1.465-146.582 70.047-146.582 152.146v44.388H96.54C81.92 209.83 70 224.912 70 243.54V466.17C70 484.777 81.922 500 96.54 500h321.026c14.617 0 26.54-15.223 26.54-33.828V243.54c0-18.628-11.922-33.71-26.54-33.71zM287.13 354.63v67.27c0 7.704-6.45 14.222-14.16 14.222h-31.834c-7.71 0-14.16-6.518-14.16-14.222v-67.27c-7.476-7.36-11.83-17.537-11.83-28.796 0-21.334 16.492-39.666 37.46-40.512 2.223-.09 6.673-.09 8.896 0 20.968.846 37.46 19.178 37.46 40.512-.003 11.26-4.357 21.434-11.833 28.795zm58.442-144.8H168.534v-44.388c0-48.905 39.742-89.342 88.518-89.342 48.774 0 88.52 40.437 88.52 89.342v44.388z"/></symbol><symbol id="icon-prev" viewBox="11.766 0.806 27.91 46.021"><path d="M29.838 45.053L13.334 27.69c-2.096-2.206-2.09-5.67.014-7.87L29.852 2.566C32.03.29 35.637.21 37.914 2.387s2.356 5.79.18 8.063L25.35 23.775l12.757 13.418c2.17 2.283 2.078 5.894-.204 8.063-1.104 1.048-2.518 1.57-3.93 1.57-1.508 0-3.012-.596-4.135-1.773z"/></symbol><symbol id="icon-thumb-down" viewBox="0 9.136 456.814 438.542"><path d="M15.704 204.137C5.236 216.127 0 230.307 0 246.677c0 14.847 5.432 27.692 16.26 38.548 10.85 10.854 23.694 16.277 38.54 16.277h79.082c-.76 2.664-1.52 4.948-2.282 6.852-.753 1.902-1.81 4-3.138 6.282-1.328 2.285-2.283 4-2.852 5.14-3.426 6.468-6.047 11.8-7.857 15.984-1.807 4.192-3.605 9.9-5.42 17.134-1.81 7.23-2.71 14.465-2.71 21.697 0 4.567.054 8.282.144 11.136.09 2.854.574 7.14 1.424 12.85.862 5.708 2.007 10.467 3.43 14.272 1.43 3.806 3.717 8.092 6.852 12.847 3.143 4.764 6.947 8.613 11.424 11.564 4.477 2.95 10.185 5.424 17.132 7.42 6.954 2 14.8 2.998 23.562 2.998 4.948 0 9.228-1.81 12.848-5.426 3.806-3.806 7.047-8.563 9.71-14.27 2.665-5.712 4.52-10.66 5.57-14.85 1.046-4.188 2.237-9.995 3.564-17.416 1.72-7.998 2.998-13.752 3.86-17.272.854-3.52 2.524-8.136 4.996-13.845 2.478-5.715 5.425-10.28 8.852-13.707 6.28-6.28 15.89-17.7 28.837-34.26 9.33-12.18 18.94-23.694 28.837-34.545 9.9-10.852 17.13-16.466 21.698-16.847 4.755-.38 8.848-2.33 12.274-5.853 3.428-3.52 5.14-7.66 5.14-12.42V63.96c0-4.95-1.807-9.183-5.423-12.704-3.615-3.524-7.898-5.38-12.848-5.57-6.66-.19-21.697-4.374-45.11-12.566-14.654-4.94-26.12-8.706-34.4-11.272-8.278-2.565-19.85-5.328-34.684-8.282-14.85-2.948-28.55-4.428-41.11-4.428h-36.829c-25.32.38-44.06 7.806-56.246 22.27-11.036 13.134-15.697 30.36-13.99 51.678-7.422 7.042-12.565 15.984-15.416 26.836-3.23 11.604-3.23 22.74 0 33.397-8.754 11.61-12.847 24.647-12.27 39.113-.03 6.096 1.395 13.327 4.256 21.704zM356.314 264.95h82.224c4.952 0 9.235-1.808 12.852-5.425 3.615-3.615 5.425-7.898 5.425-12.848V63.947c0-4.943-1.81-9.23-5.426-12.848-3.62-3.612-7.903-5.423-12.853-5.423h-82.223c-4.948 0-9.23 1.81-12.848 5.422-3.615 3.618-5.424 7.902-5.424 12.846v182.73c0 4.95 1.81 9.232 5.424 12.85 3.618 3.617 7.9 5.425 12.848 5.425zM389.15 87.508c3.615-3.52 7.896-5.28 12.846-5.28 5.14 0 9.47 1.76 12.99 5.28 3.52 3.52 5.28 7.85 5.28 12.99 0 4.948-1.76 9.232-5.28 12.847-3.52 3.617-7.85 5.43-12.99 5.43-4.95 0-9.23-1.813-12.847-5.43-3.618-3.613-5.427-7.897-5.427-12.847 0-5.14 1.805-9.468 5.426-12.99z"/></symbol><symbol id="icon-thumb-up" viewBox="0 9.136 456.814 438.542"><path d="M441.11 252.677c10.468-11.99 15.704-26.17 15.704-42.54 0-14.847-5.432-27.692-16.26-38.548-10.85-10.855-23.694-16.278-38.54-16.278h-79.082c.76-2.664 1.52-4.948 2.282-6.852.753-1.902 1.81-4 3.138-6.282 1.328-2.285 2.283-4 2.852-5.14 3.426-6.468 6.047-11.8 7.857-15.984 1.808-4.192 3.606-9.9 5.42-17.134 1.812-7.23 2.712-14.465 2.712-21.697 0-4.566-.055-8.28-.145-11.135-.09-2.854-.574-7.14-1.424-12.85-.86-5.708-2.006-10.467-3.43-14.272-1.43-3.806-3.716-8.092-6.85-12.847-3.144-4.765-6.948-8.614-11.425-11.565-4.477-2.95-10.185-5.425-17.132-7.42-6.954-2-14.8-3-23.562-3-4.948 0-9.228 1.81-12.848 5.427-3.806 3.806-7.047 8.563-9.71 14.27-2.665 5.712-4.52 10.66-5.57 14.85-1.046 4.188-2.237 9.995-3.564 17.416-1.72 7.998-2.998 13.752-3.86 17.272-.854 3.52-2.524 8.136-4.996 13.845-2.478 5.714-5.425 10.278-8.852 13.706-6.28 6.28-15.89 17.702-28.837 34.26-9.33 12.18-18.94 23.695-28.837 34.546-9.9 10.852-17.13 16.466-21.698 16.847-4.755.38-8.848 2.33-12.274 5.854-3.428 3.52-5.14 7.66-5.14 12.42v183.01c0 4.948 1.807 9.18 5.423 12.702 3.616 3.523 7.9 5.38 12.85 5.57 6.66.19 21.696 4.373 45.11 12.565 14.653 4.94 26.12 8.706 34.4 11.272 8.277 2.565 19.848 5.328 34.683 8.282 14.85 2.947 28.552 4.427 41.11 4.427h36.83c25.32-.38 44.062-7.806 56.247-22.27 11.036-13.134 15.697-30.36 13.99-51.678 7.422-7.043 12.565-15.985 15.416-26.837 3.23-11.604 3.23-22.74 0-33.397 8.754-11.61 12.847-24.648 12.27-39.114.03-6.096-1.395-13.327-4.256-21.705zM100.5 191.864H18.276c-4.952 0-9.235 1.81-12.852 5.426C1.81 200.905 0 205.188 0 210.137v182.73c0 4.943 1.81 9.23 5.426 12.848 3.62 3.61 7.902 5.422 12.852 5.422H100.5c4.948 0 9.23-1.81 12.848-5.422 3.615-3.62 5.424-7.903 5.424-12.847v-182.73c0-4.95-1.81-9.232-5.424-12.85-3.618-3.616-7.9-5.424-12.848-5.424zM67.665 369.308c-3.616 3.52-7.897 5.28-12.847 5.28-5.14 0-9.47-1.76-12.99-5.28-3.52-3.52-5.28-7.85-5.28-12.99 0-4.948 1.76-9.232 5.28-12.847 3.52-3.616 7.85-5.428 12.99-5.428 4.95 0 9.23 1.812 12.847 5.43 3.617 3.612 5.426 7.896 5.426 12.846 0 5.14-1.804 9.468-5.425 12.99z"/></symbol><symbol id="icon-user" viewBox="51.417 53.334 409.164 405.332"><path d="M256 268.09c50.664 0 91.74-48.075 91.74-107.38 0-82.235-41.074-107.376-91.74-107.376-50.667 0-91.74 25.14-91.74 107.377 0 59.304 41.073 107.38 91.74 107.38zM458.58 426.135L412.298 321.87c-2.117-4.77-5.836-8.726-10.466-11.137l-71.83-37.39c-1.583-.825-3.502-.664-4.926.414-20.315 15.365-44.202 23.487-69.075 23.487-24.876 0-48.762-8.122-69.077-23.487-1.428-1.08-3.346-1.24-4.93-.415l-71.826 37.39c-4.63 2.412-8.347 6.367-10.465 11.14L53.42 426.134c-3.192 7.188-2.538 15.412 1.75 22.005 4.284 6.59 11.536 10.525 19.398 10.525H437.43c7.863 0 15.117-3.936 19.402-10.526 4.283-6.592 4.94-14.82 1.748-22.005z"/></symbol></svg>